<?xml version="1.0" encoding="UTF-8" standalone="no"?>
<!-- Created with Inkscape (http://www.inkscape.org/) -->

<svg
   xmlns:dc="http://purl.org/dc/elements/1.1/"
   xmlns:cc="http://creativecommons.org/ns#"
   xmlns:rdf="http://www.w3.org/1999/02/22-rdf-syntax-ns#"
   xmlns:svg="http://www.w3.org/2000/svg"
   xmlns="http://www.w3.org/2000/svg"
   xmlns:sodipodi="http://sodipodi.sourceforge.net/DTD/sodipodi-0.dtd"
   xmlns:inkscape="http://www.inkscape.org/namespaces/inkscape"
   width="190mm"
   height="208mm"
   viewBox="0 0 673.22829 737.00775"
   id="svg2"
   version="1.1"
   inkscape:version="0.91 r13725"
   sodipodi:docname="ng.svg">
  <defs
     id="defs4" />
  <sodipodi:namedview
     id="base"
     pagecolor="#ffffff"
     bordercolor="#666666"
     borderopacity="1.0"
     inkscape:pageopacity="0.0"
     inkscape:pageshadow="2"
     inkscape:zoom="0.49497475"
     inkscape:cx="1313.6523"
     inkscape:cy="485.05509"
     inkscape:document-units="px"
     inkscape:current-layer="layer1"
     showgrid="false"
     inkscape:window-width="1920"
     inkscape:window-height="1017"
     inkscape:window-x="-8"
     inkscape:window-y="-8"
     inkscape:window-maximized="1" />
  <metadata
     id="metadata7">
    <rdf:RDF>
      <cc:Work
         rdf:about="">
        <dc:format>image/svg+xml</dc:format>
        <dc:type
           rdf:resource="http://purl.org/dc/dcmitype/StillImage" />
        <dc:title></dc:title>
      </cc:Work>
    </rdf:RDF>
  </metadata>
  <g
     inkscape:label="Layer 1"
     inkscape:groupmode="layer"
     id="layer1"
     transform="translate(0,-315.35451)">
    <path
       style="fill:#ffffff"
       d="m 340.28995,323.92532 c -6.09353,-1.52929 -326.1805,123.69266 -329.494139,128.90234 -3.0978701,4.87035 38.470814,414.58916 42.470704,418.60938 3.52828,3.54643 281.478665,175.06636 283.697265,175.06636 0.89001,0 31.54831,-18.0743 68.12891,-40.166 36.58055,-22.09144 101.66612,-61.38284 144.63671,-87.31638 72.86101,-43.97296 78.21686,-47.66348 79.42579,-54.75586 0.71299,-4.1826 9.30832,-93.0394 19.0996,-197.45508 9.79131,-104.41567 18.36314,-194.68147 19.04688,-200.59179 0.68373,-5.91032 0.38635,-12.09575 -0.66211,-13.7461 -1.63793,-2.57786 -312.82462,-125.15232 -326.34961,-128.54687 z m -6.83398,97.83007 c 4.23447,-1.10731 233.08152,85.02108 237.6914,89.45704 2.036,1.95904 -13.04768,143.90508 -23.91797,234.10351 l -417.61132,0 c -9.04236,-85.86487 -22.19667,-219.0176 -22.16407,-228.70312 0.0191,-5.97265 4.33257,-7.91618 110.60938,-49.9043 60.82268,-24.03005 112.74798,-44.26156 115.39258,-44.95313 z m 41.90234,338.0586 c 6.2207,0 11.07422,1.3112 14.56055,3.93164 3.50911,2.59766 5.76497,6.19792 6.76758,10.80078 l -10.04883,1.87891 c -0.70638,-2.46094 -2.04037,-4.39779 -4,-5.81055 -1.93685,-1.43555 -4.36263,-2.15234 -7.2793,-2.15234 -4.42057,0 -7.94206,1.40039 -10.5625,4.20312 -2.59766,2.80274 -3.89648,6.96224 -3.89648,12.47656 0,5.94727 1.32161,10.41342 3.96484,13.39844 2.64323,2.96224 6.10678,4.44336 10.39062,4.44336 2.11915,0 4.23829,-0.41016 6.35743,-1.23047 2.14192,-0.8431 3.97721,-1.85807 5.5039,-3.04297 l 0,-6.35742 -11.58789,0 0,-8.4414 21.80664,0 0,19.96093 c -2.11914,2.05078 -5.19531,3.86133 -9.22851,5.4336 -4.01042,1.54948 -8.07683,2.32421 -12.20117,2.32421 -5.24089,0 -9.81055,-1.09375 -13.70704,-3.28124 -3.89648,-2.21029 -6.82356,-5.35482 -8.7832,-9.4336 -1.95963,-4.10156 -2.93945,-8.55534 -2.93945,-13.36328 0,-5.2181 1.09375,-9.85612 3.28125,-13.91211 2.1875,-4.05599 5.38802,-7.16536 9.60351,-9.33008 3.21289,-1.66341 7.21289,-2.49609 11.99805,-2.49609 z m -206.10352,0.85547 9.84376,0 20.50781,33.46093 0,-33.46093 9.39843,0 0,50.10742 -10.15039,0 -20.20117,-32.67578 0,32.67578 -9.39844,0 0,-50.10742 z m 50.48243,0 37.15429,0 0,8.47656 -27.03711,0 0,11.10742 25.15625,0 0,8.44336 -25.15625,0 0,13.63672 27.99415,0 0,8.44336 -38.11133,0 0,-50.10742 z m 41.90429,0 10.35743,0 7.55273,34.41797 9.16016,-34.41797 12.03125,0 8.78515,35 7.68946,-35 10.18554,0 -12.16797,50.10742 -10.73242,0 -9.98047,-37.46094 -9.94531,37.46094 -10.97266,0 -11.96289,-50.10742 z m 144.99024,0 37.1543,0 0,8.47656 -27.03711,0 0,11.10742 25.15625,0 0,8.44336 -25.15625,0 0,13.63672 27.99414,0 0,8.44336 -38.11133,0 0,-50.10742 z m 46.86133,0 9.84375,0 20.50781,33.46093 0,-33.46093 9.39844,0 0,50.10742 -10.15039,0 -20.20118,-32.67578 0,32.67578 -9.39843,0 0,-50.10742 z m -308.53321,61.41797 386.45313,0 c -31.59915,20.56723 -191.95504,116.95221 -194.96094,116.91015 -1.8428,-0.0263 -46.87546,-26.99504 -100.06836,-59.92969 -41.27244,-25.5539 -76.92823,-47.78697 -91.42383,-56.98046 z"
       id="path4608"
       inkscape:connector-curvature="0" />
    <path
       style="fill:#ffffff"
       d="m 443.23536,537.24713 c -17.154,-0.4084 -35.06903,2.08062 -49.39116,12.24678 -26.78417,16.85222 -38.58043,50.83676 -34.54983,81.35048 3.04089,27.05076 19.80621,53.6944 46.00496,63.39826 21.16514,7.82706 45.45983,8.27997 66.51806,-0.1108 23.71397,-11.39773 39.68543,-35.92196 44.04424,-61.48349 1.1045,-7.26544 0.82591,-14.63391 1.11281,-21.95607 -21.91671,-0.25112 -43.84291,-1.41119 -65.75442,-0.75081 -9.81799,-1.44897 -13.58466,8.106 -11.35173,16.20443 0.22996,4.40084 0.45991,8.80165 0.68987,13.20249 10.10684,1.03329 20.48116,0.6119 30.32294,3.31374 6.67372,5.63334 -5.89755,13.98857 -10.74707,16.83616 -16.11658,8.01637 -38.60235,7.5883 -50.72384,-7.28632 -13.67058,-15.69481 -14.21622,-39.11869 -6.51656,-57.65697 7.23203,-13.28461 21.71827,-22.75249 37.07596,-22.48585 12.79555,-0.33288 25.91266,5.49326 32.78535,16.57369 6.32144,7.90149 16.41333,0.8029 23.28247,-2.42765 7.04414,-2.68027 16.67711,-10.37057 9.56743,-18.14908 -12.02126,-15.30276 -28.93118,-28.25346 -48.90331,-30.02286 -4.46574,-0.55542 -8.9681,-0.76932 -13.46617,-0.79623 z"
       id="path4594"
       inkscape:connector-curvature="0" />
    <path
       style="fill:#ffffff"
       d="m 204.74385,696.35117 c 7.38762,-2.87153 4.25672,-13.06446 5.26587,-19.42039 0.5218,-23.46342 -0.80493,-47.04162 1.68808,-70.41519 2.62254,-3.97386 8.13215,6.98782 11.33837,8.90594 21.97686,24.18262 41.49563,50.54736 64.35559,73.92463 5.00875,5.23282 11.76023,9.52183 19.30657,8.43963 6.14946,-0.0929 12.23255,-1.10345 18.10837,-2.89178 -0.41981,-51.15075 -0.83963,-102.30151 -1.25941,-153.45225 -11.94005,0 -23.88009,0 -35.82014,0 -0.79599,31.04411 -1.59201,62.08823 -2.388,93.13234 -26.86331,-31.42686 -53.64815,-62.92083 -80.28744,-94.53792 -10.64966,0.46852 -21.29932,0.93705 -31.94897,1.40558 -0.23331,44.8798 -1.13309,89.76147 -0.67509,134.6408 0.98438,6.53364 -1.64057,16.43939 5.57578,19.85278 8.58917,2.53213 18.04635,2.38331 26.74042,0.41583 z"
       id="path4592"
       inkscape:connector-curvature="0" />
  </g>
</svg>
